<svg xmlns="http://www.w3.org/2000/svg" viewBox="0 0 1200 720" fill="none">
  <rect width="1200" height="720" fill="#F3F7FB"/>
  <path d="M0 128h1200" stroke="#D8E3F0" stroke-width="2"/>
  <path d="M0 256h1200" stroke="#D8E3F0" stroke-width="2"/>
  <path d="M0 384h1200" stroke="#D8E3F0" stroke-width="2"/>
  <path d="M0 512h1200" stroke="#D8E3F0" stroke-width="2"/>
  <path d="M160 0v720" stroke="#D8E3F0" stroke-width="2"/>
  <path d="M400 0v720" stroke="#D8E3F0" stroke-width="2"/>
  <path d="M640 0v720" stroke="#D8E3F0" stroke-width="2"/>
  <path d="M880 0v720" stroke="#D8E3F0" stroke-width="2"/>
  <path d="M1120 0v720" stroke="#D8E3F0" stroke-width="2"/>
  <rect x="96" y="92" width="1008" height="536" rx="32" fill="#fff" stroke="#D8E3F0" stroke-width="4"/>
  <circle cx="260" cy="260" r="92" fill="#0F172A"/>
  <path d="M218 254c22-42 82-56 124-24" stroke="#F59E0B" stroke-width="18" stroke-linecap="round"/>
  <path d="M216 314c56 34 136 28 190-16" stroke="#2563EB" stroke-width="18" stroke-linecap="round"/>
  <rect x="456" y="212" width="420" height="28" rx="14" fill="#111827"/>
  <rect x="456" y="272" width="320" height="22" rx="11" fill="#475569"/>
  <rect x="456" y="326" width="364" height="22" rx="11" fill="#475569"/>
  <rect x="456" y="420" width="184" height="18" rx="9" fill="#F59E0B" fill-opacity=".35"/>
  <rect x="96" y="664" width="1008" height="16" rx="8" fill="#D8E3F0"/>
</svg>